<svg xmlns="http://www.w3.org/2000/svg" xmlns:xlink="http://www.w3.org/1999/xlink" width="37" height="36" viewBox="0 0 37 36" fill="none"><defs><path id="path_0"
        transform="translate(0 0) rotate(0 18 17.9999)"
        d="M0,36L36,36L36,0L0,0L0,36Z" /></defs><g opacity="1" transform="translate(0 0)  rotate(0 18.1443 17.9999)"><g opacity="1" transform="translate(0 0)  rotate(0 18 17.9999)"><g opacity="1" transform="translate(0 0)  rotate(0 0.5 0.5)"></g><g opacity="1" transform="translate(0 0)  rotate(0 18 17.9999)"><mask id="mask-0" fill="white"><use xlink:href="#path_0"></use></mask><g mask="url(#mask-0)"></g><g mask="url(#mask-0)"><path id="Fill-1" fill-rule="evenodd" style="fill:#0D3CFB" transform="translate(0 -0.0001999999999497959)  rotate(0 18 18)" opacity="1" d="M31.293 18.003C31.293 10.653 25.343 4.703 18.003 4.703C10.653 4.703 4.703 10.653 4.703 18.003C4.703 25.343 10.653 31.293 18.003 31.293C25.343 31.293 31.293 25.343 31.293 18.003Z M5.27 30.73C6.92 32.38 8.85 33.68 10.99 34.58C13.21 35.52 15.57 36 18 36C20.43 36 22.79 35.52 25.01 34.58C25.18 34.51 25.36 34.43 25.53 34.35C26.32 33.99 26.79 33.18 26.72 32.32C26.7 32.04 26.69 31.76 26.71 31.47C26.9 28.69 29.15 26.45 31.94 26.26C32.15 26.24 32.37 26.24 32.58 26.25C33.44 26.29 34.24 25.81 34.58 25.02C34.58 25.02 34.58 25.01 34.58 25.01C35.52 22.79 36 20.43 36 18C36 15.57 35.52 13.21 34.58 10.99C33.68 8.85 32.38 6.92 30.73 5.27C29.08 3.62 27.15 2.32 25.01 1.42C22.79 0.48 20.43 0 18 0C15.57 0 13.21 0.48 10.99 1.42C8.85 2.32 6.92 3.62 5.27 5.27C3.62 6.92 2.32 8.85 1.42 10.99C0.48 13.21 0 15.57 0 18C0 20.43 0.48 22.79 1.42 25.01C2.32 27.15 3.62 29.08 5.27 30.73Z " /></g></g></g><path id="Fill-3" fill-rule="evenodd" style="fill:#E10602" transform="translate(28.345600000000005 27.8898)  rotate(0 3.9715000000000007 3.9719999999999978)" opacity="1" d="M3.97,0C1.78,0 0,1.78 0,3.97C0,6.16 1.78,7.94 3.97,7.94C6.16,7.94 7.94,6.16 7.94,3.97C7.94,1.78 6.16,0 3.97,0Z " /><path id="Fill-5" fill-rule="evenodd" style="fill:#0D3CFB" transform="translate(15.426531181514655 11.484546291848979)  rotate(45.000000000000014 6.515407214008983 6.515439926053732)" opacity="1" d="M8.57,12.53C9.51,13.46 11.1,13.03 11.44,11.76L12.93,6.18C13.2,5.2 12.92,4.15 12.19,3.42L9.61,0.84C8.89,0.11 7.83,-0.17 6.85,0.1L1.27,1.59C0,1.93 -0.43,3.52 0.5,4.46L1.77,5.72C2.31,6.26 3.1,6.48 3.84,6.28L7.68,5.25L6.65,9.09C6.45,9.83 6.66,10.61 7.2,11.15L8.57,12.53Z " /><path id="Fill-7" fill-rule="evenodd" style="fill:#0D3CFB" transform="translate(7.542618946069453 11.484404675016343)  rotate(45.000000000000014 6.515194470950876 6.5154072140089845)" opacity="1" d="M6.18,12.93L11.76,11.44C13.03,11.1 13.46,9.51 12.53,8.57L11.15,7.2C10.61,6.66 9.83,6.45 9.09,6.65L5.25,7.68L6.28,3.84C6.48,3.1 6.26,2.31 5.72,1.77L4.46,0.5C3.52,-0.43 1.93,0 1.59,1.27L0.1,6.85C-0.17,7.83 0.11,8.89 0.84,9.61L3.42,12.19C4.15,12.92 5.2,13.2 6.18,12.93Z " /></g></svg>