<svg width="128" height="128" viewBox="0 0 27 24" fill="none" xmlns="http://www.w3.org/2000/svg">
  <path
    d="M14.147 11.807V9.389A5.88 5.88 0 0 0 8.28 3.508H1.548a.512.512 0 0 0 0 1.024h6.73a4.852 4.852 0 0 1 4.848 4.857v5.226a5.88 5.88 0 0 0 5.88 5.88h6.731a.512.512 0 1 0 0-1.024h-6.743a4.851 4.851 0 0 1-4.847-4.856v-2.808Z"
    fill="#007CF8" stroke="#007CF8" stroke-width=".312" />
  <path
    d="M25.784 21.987h-7.677a6.42 6.42 0 0 1-6.413-6.415V10.11a4.139 4.139 0 0 0-4.133-4.133H1.548a.512.512 0 0 0 0 1.024H7.56a3.112 3.112 0 0 1 3.11 3.11v3.792a3.114 3.114 0 0 1-3.11 3.11H1.548a.512.512 0 1 0 0 1.021H7.56a4.131 4.131 0 0 0 3.185-1.49 7.29 7.29 0 0 0 .512 1.902 4.832 4.832 0 0 1-2.97 1.02h-6.74a.512.512 0 0 0 0 1.024h6.73a5.844 5.844 0 0 0 3.431-1.118c.323.537.712 1.03 1.157 1.47a6.417 6.417 0 0 1-3.642 1.137H1.548a.512.512 0 1 0 0 1.022h7.684a7.453 7.453 0 0 0 4.44-1.47 7.39 7.39 0 0 0 4.435 1.47h7.677a.512.512 0 1 0 0-1.022v.008Z"
    fill="#007CF8" stroke="#007CF8" stroke-width=".312" />
  <path
    d="M19.06 4.543h6.724a.512.512 0 0 0 0-1.024H19.06a5.88 5.88 0 0 0-3.43 1.117 7.422 7.422 0 0 0-1.157-1.47 6.43 6.43 0 0 1 3.634-1.142h7.677a.512.512 0 0 0 0-1.024h-7.677c-1.6 0-3.156.516-4.44 1.47A7.395 7.395 0 0 0 9.232 1H1.548a.512.512 0 0 0 0 1.024h7.684a6.42 6.42 0 0 1 6.413 6.413V13.9a4.136 4.136 0 0 0 4.133 4.131h6.006a.512.512 0 1 0 0-1.022h-6.006a3.114 3.114 0 0 1-3.11-3.11v-3.792a3.112 3.112 0 0 1 3.11-3.11h6.006a.512.512 0 0 0 0-1.024h-6.006a4.122 4.122 0 0 0-3.185 1.492 7.402 7.402 0 0 0-.512-1.904 4.842 4.842 0 0 1 2.98-1.019Z"
    fill="#007CF8" stroke="#007CF8" stroke-width=".312" />
</svg>