<svg xmlns="http://www.w3.org/2000/svg" xmlns:xlink="http://www.w3.org/1999/xlink" width="128" height="128" viewBox="0 0 128 128" fill="none"><g opacity="1"  transform="translate(0 0)"><mask id="bg-mask-0" fill="white"><use transform="translate(0 0)" xlink:href="#path_0"></use></mask><g mask="url(#bg-mask-0)" ><path id="路径 1" fill-rule="evenodd" style="fill:#1E4FC8" opacity="1" d="M91.8046 30.6516C91.8046 36.5343 87.5951 41.3032 82.4023 41.3032C77.2095 41.3032 73 36.5343 73 30.6516C73 24.7688 77.2095 20 82.4023 20C87.5951 20 91.8046 24.7688 91.8046 30.6516Z"></path><path id="路径 2" fill-rule="evenodd" style="fill:#1E4FC8" opacity="1" d="M90.7001 48.4305C95.1963 45.4876 100.947 47.2309 103.545 52.3245L123.973 92.3793C126.571 97.4729 125.032 103.988 120.536 106.931C116.04 109.874 110.289 108.131 107.691 103.037L87.2628 62.982C84.6649 57.8884 86.2039 51.3734 90.7001 48.4305Z"></path><path id="路径 3" fill-rule="evenodd" fill="url(#linear_0)" opacity="1" d="M36.8267 26.8977C40.8536 19.0318 50.8809 19.0347 54.904 26.9029L86.8806 89.4413C89.4834 94.5316 87.9506 101.048 83.4573 103.997C78.9639 106.946 73.2113 105.209 70.6086 100.119L49.4735 58.7837C47.8642 55.6366 43.8534 55.6354 42.2427 58.7816L20.5372 101.181C17.9321 106.27 12.1788 108.003 7.68675 105.051C3.19476 102.1 1.66532 95.5823 4.27038 90.4935L36.8267 26.8977Z"></path><path id="路径 4" fill-rule="evenodd" fill="url(#linear_1)" opacity="1" d="M50.5815 22.4392C55.0735 25.3904 56.6031 31.9082 53.9981 36.9971L20.5372 102.359C17.9321 107.448 12.1788 109.181 7.68675 106.23C3.19476 103.278 1.66532 96.7607 4.27038 91.6719L37.731 26.3095C40.3363 21.2206 46.0895 19.488 50.5815 22.4392Z"></path></g></g><defs><rect id="path_0" x="0" y="0" width="128" height="128" rx="0" ry="0"/><linearGradient id="linear_0" x1="77.18546701363113%" y1="21.870900851428182%" x2="109.89966790105596%" y2="108.97298372324944%" gradientUnits="objectBoundingBox"><stop offset="0" stop-color="#0F3BA6" stop-opacity="1" /><stop offset="0.039207" stop-color="#0F3BA6" stop-opacity="1" /><stop offset="1" stop-color="#1F50C9" stop-opacity="1" /></linearGradient><linearGradient id="linear_1" x1="50.00003186489277%" y1="0.000045907378761569776%" x2="51.00003186489277%" y2="100.00002517141952%" gradientUnits="objectBoundingBox"><stop offset="0" stop-color="#1F50C9" stop-opacity="1" /><stop offset="1" stop-color="#1F50C9" stop-opacity="1" /></linearGradient></defs></svg>