<svg width="40" height="39" viewBox="0 0 40 39" fill="none" xmlns="http://www.w3.org/2000/svg"><g id="Frame 1171277228"><g id="Group 3680"><g id="Group 3678"><path id="Vector 8" d="M20.7182 6.84484L29.3457 16.5507C29.9382 17.2172 29.8047 18.2537 29.0627 18.7483C28.5367 19.099 28.2941 19.7469 28.4604 20.3567L29.2645 23.3049C29.8701 25.5254 28.1985 27.7139 25.8969 27.7139H19.5192C17.6925 27.7139 15.8646 27.4261 14.1804 26.7189C12.4631 25.9977 10.6741 25.0641 9.90175 23.9055C8.6075 21.9642 7.12998 21.1224 6.40343 19.9789C6.14776 19.5765 5.98637 19.1215 5.77316 18.6951C4.52026 16.1893 4.36729 13.2749 5.35099 10.6517L5.67395 9.79052C5.95264 9.04733 6.3157 8.33857 6.75598 7.67815L7.61599 6.38812C8.59184 4.92435 10.1092 3.90818 11.8343 3.56316C12.5717 3.41568 13.3288 3.39467 14.0732 3.50102L14.6473 3.58302C16.993 3.91812 19.144 5.07382 20.7182 6.84484Z" fill="white"></path><ellipse id="Ellipse 456" cx="16.18" cy="16.2425" rx="12.1868" ry="10.6634" transform="rotate(38.8477 16.18 16.2425)" fill="#F7F7FF"></ellipse><ellipse id="Ellipse 457" cx="16.167" cy="15.3498" rx="9.56288" ry="12.1868" transform="rotate(-45.8642 16.167 15.3498)" fill="#202C46"></ellipse><circle id="Ellipse 445" cx="14.2014" cy="13.7088" r="4.42263" fill="white"></circle><path id="Subtract" fill-rule="evenodd" clip-rule="evenodd" d="M30.7499 21.8104C30.8135 21.7826 30.8842 21.776 30.9517 21.7917C31.9088 22.0159 33.7328 22.5015 37.1035 23.5465C37.182 23.5731 37.2637 23.5888 37.3463 23.5933C37.4228 23.596 37.4986 23.5784 37.5662 23.5421C37.6339 23.5059 37.691 23.4523 37.7318 23.3867C37.7726 23.3211 37.7958 23.2458 37.799 23.1683C37.8022 23.0908 37.7854 23.0138 37.7501 22.945C37.7156 22.8725 37.6733 22.8037 37.631 22.735C37.6182 22.7143 37.6054 22.6935 37.5929 22.6727C36.3373 20.5768 34.907 18.6065 33.4073 16.6868C31.7355 14.5474 29.9863 12.4751 28.124 10.5044C27.9317 10.3007 27.6983 10.0527 27.4397 9.77791C26.1353 8.39161 24.1906 6.32476 23.642 5.83961L23.6417 5.8393C23.6083 5.80772 21.1343 3.46884 19.6356 2.72019C17.2374 1.52258 14.7149 1.1394 12.0818 1.63345C9.35057 2.14604 7.02223 3.43091 5.19282 5.55633C2.87695 8.24704 1.88699 11.3956 2.2271 14.9521C2.42127 16.9797 3.11145 18.8354 4.23404 20.5258C4.74669 21.2972 5.34333 21.9822 6.00857 22.636C6.84594 23.4669 15.5406 29.9734 19.1529 32.5128C20.3986 33.4872 21.6263 34.4864 22.8543 35.4857C23.2141 35.7785 23.574 36.0713 23.9343 36.3636C24.2451 36.6155 24.541 36.8853 24.8374 37.1554C24.8733 37.1881 24.9091 37.2208 24.945 37.2535C25.1471 37.436 25.3749 37.4853 25.5571 37.3799C25.7392 37.2745 25.7974 37.1089 25.7479 36.8294C25.7395 36.7828 25.7314 36.7362 25.7233 36.6896C25.705 36.5842 25.6866 36.4789 25.6647 36.3745C25.2577 34.4426 24.5613 32.6135 23.7364 30.8312C23.7306 30.8187 23.7249 30.8063 23.7192 30.7938C23.6873 30.7243 23.6556 30.6552 23.6204 30.5859C23.5911 30.5248 23.5811 30.4561 23.5918 30.389C23.6025 30.3219 23.6334 30.2599 23.6802 30.2113C23.727 30.1627 23.7875 30.13 23.8534 30.1176C23.9193 30.1052 23.9873 30.1137 24.0482 30.142C26.7004 31.3708 29.2799 32.7442 31.8232 34.1859C33.4166 35.0893 34.9994 36.0118 36.5821 36.9344C37.2601 37.3296 37.9381 37.7248 38.617 38.1185C39.0061 38.3453 39.3899 38.3326 39.698 38.0708C40.0061 37.8091 40.0896 37.4419 39.8963 36.9997C39.7813 36.7363 39.6679 36.4721 39.5545 36.208C39.1872 35.3525 38.8201 34.4976 38.402 33.6695C36.3863 29.6775 33.8513 26.0429 30.9372 22.6752C30.8382 22.561 30.7384 22.448 30.6378 22.335C30.5913 22.283 30.5624 22.2173 30.5552 22.1474C30.5481 22.0775 30.5631 22.0072 30.5982 21.9466C30.6332 21.886 30.6863 21.8383 30.7499 21.8104ZM6.352 13.4169C6.47299 9.17022 9.91103 5.66425 14.2517 5.67436C18.5679 5.64823 22.2816 9.25959 22.1456 13.9286C22.1093 15.2105 21.7694 16.4294 21.1903 17.505L25.0859 20.8501C25.8066 21.4689 25.8891 22.5547 25.2703 23.2754C24.6515 23.996 23.5656 24.0786 22.845 23.4598L18.9476 20.1132C17.6366 21.0952 16.0036 21.6808 14.2043 21.6753C9.89897 21.6618 6.21978 18.0774 6.352 13.4169Z" fill="url(#paint0_linear_62_1525)"></path></g></g></g><defs><linearGradient id="paint0_linear_62_1525" x1="14.945" y1="13.4525" x2="21.6131" y2="34.701" gradientUnits="userSpaceOnUse"><stop stop-color="#6573FF"></stop><stop offset="1" stop-color="#29DDCC"></stop></linearGradient></defs></svg>